<?xml version="1.0" encoding="utf-8"?>
<!-- Generator: Adobe Illustrator 24.2.1, SVG Export Plug-In . SVG Version: 6.00 Build 0)  -->
<svg version="1.1" id="レイヤー_1" xmlns="http://www.w3.org/2000/svg" xmlns:xlink="http://www.w3.org/1999/xlink" x="0px"
	 y="0px" width="69.6px" height="71.1px" viewBox="0 0 69.6 71.1" style="enable-background:new 0 0 69.6 71.1;"
	 xml:space="preserve">
<style type="text/css">
	.st0{fill:#FF74AB;}
</style>
<g>
	<g>
		<g>
			<path class="st0" d="M32.4,30.1c0,0,3.6-2.3,3.2-8.9C35.2,14.5,35.2,7.6,40,3c3.2-3,4.6-3.7,6.2-2.3c1.6,1.4,0.1,3.4,1.7,3.4
				c1.6,0.1,2-4.3,4.1-3.3c2.1,1,7,10.4,3.3,17.2c-3.7,6.8-8.9,10.2-13.1,11.8C38.1,31.5,32.4,30.1,32.4,30.1z"/>
			<path class="st0" d="M36.3,35.1c0,0,3.4,2.3,9.2-0.8c5.8-3.1,12-6,17.8-3.5c3.9,1.6,5,2.6,4.3,4.7c-0.7,2.1-3,1.5-2.4,3
				c0.5,1.5,4.6,0.1,4.4,2.4c-0.1,2.3-6.7,10.6-14.1,10.1c-7.4-0.5-12.4-3.8-15.4-6.9C37.2,40.8,36.3,35.1,36.3,35.1z"/>
			<path class="st0" d="M33.1,38c0,0-0.8,4,4.3,8.1c5.1,4.2,10.2,8.7,10.2,15.1c0,4.2-0.5,5.6-2.7,5.8c-2.2,0.2-2.5-2.2-3.7-1.1
				c-1.2,1.1,1.7,4.2-0.4,5c-2.1,0.8-12.4-2.1-14.8-9.1c-2.4-7-1.3-12.9,0.4-16.9C28.2,41.1,33.1,38,33.1,38z"/>
			<path class="st0" d="M29.9,35.9c0,0-4.2,0.9-6.1,7.3c-1.9,6.4-4.2,12.9-10.4,15.6c-4,1.7-5.6,1.9-6.6,0c-1.1-1.9,1.1-3.2-0.4-3.8
				c-1.5-0.6-3.4,3.3-5,1.7c-1.6-1.6-3-12.2,2.7-17.3c5.8-5.1,11.9-6.6,16.4-6.6C25,32.6,29.9,35.9,29.9,35.9z"/>
			<path class="st0" d="M28.9,32.9c0,0-1.6-3.8-8.1-4.3C14.2,28,7.5,27,3.9,21.7c-2.3-3.5-2.7-4.9-1-6.3c1.7-1.4,3.3,0.4,3.7-1.1
				c0.4-1.5-3.8-2.6-2.4-4.4c1.3-1.8,11.4-5.2,17.3-0.7c5.9,4.5,8.3,10,9.1,14.2C31.3,27.6,28.9,32.9,28.9,32.9z"/>
		</g>
	</g>
</g>
</svg>
